<mxfile host="app.diagrams.net" modified="2023-11-15T10:34:28.558Z" agent="Mozilla/5.0 (Windows NT 10.0; Win64; x64) AppleWebKit/537.36 (KHTML, like Gecko) Chrome/117.0.0.0 Safari/537.36" etag="xyTZ1ZSDe2ih8OCscNf0" version="22.1.1" type="device">
  <diagram name="Page-1" id="OhqyLPMu03MbaK06vYWf">
    <mxGraphModel dx="1249" dy="697" grid="1" gridSize="10" guides="1" tooltips="1" connect="1" arrows="1" fold="1" page="1" pageScale="1" pageWidth="850" pageHeight="1100" math="0" shadow="0">
      <root>
        <mxCell id="0" />
        <mxCell id="1" parent="0" />
        <mxCell id="wOqqg8vLbX3OlGaXOR6U-2" value="Начало" style="rounded=1;whiteSpace=wrap;html=1;" vertex="1" parent="1">
          <mxGeometry x="390" y="10" width="70" height="30" as="geometry" />
        </mxCell>
        <mxCell id="wOqqg8vLbX3OlGaXOR6U-24" style="edgeStyle=orthogonalEdgeStyle;rounded=0;orthogonalLoop=1;jettySize=auto;html=1;exitX=0.5;exitY=1;exitDx=0;exitDy=0;entryX=0.5;entryY=0;entryDx=0;entryDy=0;" edge="1" parent="1" source="wOqqg8vLbX3OlGaXOR6U-3" target="wOqqg8vLbX3OlGaXOR6U-4">
          <mxGeometry relative="1" as="geometry" />
        </mxCell>
        <mxCell id="wOqqg8vLbX3OlGaXOR6U-3" value="Ожидание&lt;br&gt;нажатия кнопки" style="shape=parallelogram;perimeter=parallelogramPerimeter;whiteSpace=wrap;html=1;fixedSize=1;" vertex="1" parent="1">
          <mxGeometry x="365" y="220" width="120" height="40" as="geometry" />
        </mxCell>
        <mxCell id="wOqqg8vLbX3OlGaXOR6U-25" style="edgeStyle=orthogonalEdgeStyle;rounded=0;orthogonalLoop=1;jettySize=auto;html=1;exitX=0.5;exitY=1;exitDx=0;exitDy=0;entryX=0.5;entryY=0;entryDx=0;entryDy=0;" edge="1" parent="1" source="wOqqg8vLbX3OlGaXOR6U-4" target="wOqqg8vLbX3OlGaXOR6U-21">
          <mxGeometry relative="1" as="geometry" />
        </mxCell>
        <mxCell id="wOqqg8vLbX3OlGaXOR6U-4" value="Написать на&lt;br&gt;экране нажатую цифру" style="shape=parallelogram;perimeter=parallelogramPerimeter;whiteSpace=wrap;html=1;fixedSize=1;" vertex="1" parent="1">
          <mxGeometry x="360" y="280" width="120" height="60" as="geometry" />
        </mxCell>
        <mxCell id="wOqqg8vLbX3OlGaXOR6U-28" style="edgeStyle=orthogonalEdgeStyle;rounded=0;orthogonalLoop=1;jettySize=auto;html=1;exitX=1;exitY=0.5;exitDx=0;exitDy=0;entryX=0.5;entryY=0;entryDx=0;entryDy=0;" edge="1" parent="1" source="wOqqg8vLbX3OlGaXOR6U-5" target="wOqqg8vLbX3OlGaXOR6U-7">
          <mxGeometry relative="1" as="geometry" />
        </mxCell>
        <mxCell id="wOqqg8vLbX3OlGaXOR6U-48" value="Да" style="edgeLabel;html=1;align=center;verticalAlign=middle;resizable=0;points=[];" vertex="1" connectable="0" parent="wOqqg8vLbX3OlGaXOR6U-28">
          <mxGeometry x="-0.1508" y="1" relative="1" as="geometry">
            <mxPoint as="offset" />
          </mxGeometry>
        </mxCell>
        <mxCell id="wOqqg8vLbX3OlGaXOR6U-63" style="edgeStyle=orthogonalEdgeStyle;rounded=0;orthogonalLoop=1;jettySize=auto;html=1;exitX=0;exitY=0.5;exitDx=0;exitDy=0;entryX=0.5;entryY=0;entryDx=0;entryDy=0;" edge="1" parent="1" source="wOqqg8vLbX3OlGaXOR6U-5" target="wOqqg8vLbX3OlGaXOR6U-3">
          <mxGeometry relative="1" as="geometry">
            <Array as="points">
              <mxPoint x="310" y="480" />
              <mxPoint x="310" y="210" />
              <mxPoint x="425" y="210" />
            </Array>
          </mxGeometry>
        </mxCell>
        <mxCell id="wOqqg8vLbX3OlGaXOR6U-5" value="В&lt;br&gt;последовательности&lt;br&gt;для отгадывания&lt;br&gt;5 цифр?" style="rhombus;whiteSpace=wrap;html=1;" vertex="1" parent="1">
          <mxGeometry x="330" y="440" width="180" height="80" as="geometry" />
        </mxCell>
        <mxCell id="wOqqg8vLbX3OlGaXOR6U-39" style="edgeStyle=orthogonalEdgeStyle;rounded=0;orthogonalLoop=1;jettySize=auto;html=1;exitX=0.5;exitY=1;exitDx=0;exitDy=0;entryX=0.5;entryY=0;entryDx=0;entryDy=0;" edge="1" parent="1" source="wOqqg8vLbX3OlGaXOR6U-7" target="wOqqg8vLbX3OlGaXOR6U-8">
          <mxGeometry relative="1" as="geometry">
            <Array as="points">
              <mxPoint x="545" y="570" />
              <mxPoint x="633" y="570" />
            </Array>
          </mxGeometry>
        </mxCell>
        <mxCell id="wOqqg8vLbX3OlGaXOR6U-7" value="Для каждой цифры в последовательности:" style="shape=loopLimit;whiteSpace=wrap;html=1;" vertex="1" parent="1">
          <mxGeometry x="475" y="510" width="140" height="50" as="geometry" />
        </mxCell>
        <mxCell id="wOqqg8vLbX3OlGaXOR6U-36" style="edgeStyle=orthogonalEdgeStyle;rounded=0;orthogonalLoop=1;jettySize=auto;html=1;exitX=1;exitY=0.5;exitDx=0;exitDy=0;entryX=0.5;entryY=0;entryDx=0;entryDy=0;" edge="1" parent="1" source="wOqqg8vLbX3OlGaXOR6U-8" target="wOqqg8vLbX3OlGaXOR6U-30">
          <mxGeometry relative="1" as="geometry" />
        </mxCell>
        <mxCell id="wOqqg8vLbX3OlGaXOR6U-41" value="Да" style="edgeLabel;html=1;align=center;verticalAlign=middle;resizable=0;points=[];" vertex="1" connectable="0" parent="wOqqg8vLbX3OlGaXOR6U-36">
          <mxGeometry x="-0.216" y="3" relative="1" as="geometry">
            <mxPoint x="-1" as="offset" />
          </mxGeometry>
        </mxCell>
        <mxCell id="wOqqg8vLbX3OlGaXOR6U-38" style="edgeStyle=orthogonalEdgeStyle;rounded=0;orthogonalLoop=1;jettySize=auto;html=1;exitX=0;exitY=0.5;exitDx=0;exitDy=0;entryX=0.5;entryY=0;entryDx=0;entryDy=0;" edge="1" parent="1" source="wOqqg8vLbX3OlGaXOR6U-8" target="wOqqg8vLbX3OlGaXOR6U-12">
          <mxGeometry relative="1" as="geometry" />
        </mxCell>
        <mxCell id="wOqqg8vLbX3OlGaXOR6U-43" value="Нет" style="edgeLabel;html=1;align=center;verticalAlign=middle;resizable=0;points=[];" vertex="1" connectable="0" parent="wOqqg8vLbX3OlGaXOR6U-38">
          <mxGeometry x="0.1133" relative="1" as="geometry">
            <mxPoint x="-1" as="offset" />
          </mxGeometry>
        </mxCell>
        <mxCell id="wOqqg8vLbX3OlGaXOR6U-8" value="Цифра больше&lt;br&gt;загаданной?" style="rhombus;whiteSpace=wrap;html=1;" vertex="1" parent="1">
          <mxGeometry x="570" y="580" width="125" height="90" as="geometry" />
        </mxCell>
        <mxCell id="wOqqg8vLbX3OlGaXOR6U-9" value="Загадать последовательность из 5 случайных цифр" style="rounded=0;whiteSpace=wrap;html=1;" vertex="1" parent="1">
          <mxGeometry x="365" y="60" width="120" height="60" as="geometry" />
        </mxCell>
        <mxCell id="wOqqg8vLbX3OlGaXOR6U-37" style="edgeStyle=orthogonalEdgeStyle;rounded=0;orthogonalLoop=1;jettySize=auto;html=1;exitX=1;exitY=0.5;exitDx=0;exitDy=0;entryX=0.5;entryY=0;entryDx=0;entryDy=0;" edge="1" parent="1" source="wOqqg8vLbX3OlGaXOR6U-12" target="wOqqg8vLbX3OlGaXOR6U-34">
          <mxGeometry relative="1" as="geometry" />
        </mxCell>
        <mxCell id="wOqqg8vLbX3OlGaXOR6U-44" value="Да" style="edgeLabel;html=1;align=center;verticalAlign=middle;resizable=0;points=[];" vertex="1" connectable="0" parent="wOqqg8vLbX3OlGaXOR6U-37">
          <mxGeometry x="0.0909" y="1" relative="1" as="geometry">
            <mxPoint as="offset" />
          </mxGeometry>
        </mxCell>
        <mxCell id="wOqqg8vLbX3OlGaXOR6U-12" value="Цифра меньше&lt;br&gt;загаданной?" style="rhombus;whiteSpace=wrap;html=1;" vertex="1" parent="1">
          <mxGeometry x="457.5" y="650" width="125" height="90" as="geometry" />
        </mxCell>
        <mxCell id="wOqqg8vLbX3OlGaXOR6U-57" style="edgeStyle=orthogonalEdgeStyle;rounded=0;orthogonalLoop=1;jettySize=auto;html=1;exitX=0.5;exitY=1;exitDx=0;exitDy=0;entryX=0.5;entryY=0;entryDx=0;entryDy=0;" edge="1" parent="1" source="wOqqg8vLbX3OlGaXOR6U-15" target="wOqqg8vLbX3OlGaXOR6U-54">
          <mxGeometry relative="1" as="geometry" />
        </mxCell>
        <mxCell id="wOqqg8vLbX3OlGaXOR6U-15" value="Показать&lt;br&gt;цифру на экране" style="shape=parallelogram;perimeter=parallelogramPerimeter;whiteSpace=wrap;html=1;fixedSize=1;" vertex="1" parent="1">
          <mxGeometry x="340" y="720" width="137.5" height="40" as="geometry" />
        </mxCell>
        <mxCell id="wOqqg8vLbX3OlGaXOR6U-49" style="edgeStyle=orthogonalEdgeStyle;rounded=0;orthogonalLoop=1;jettySize=auto;html=1;exitX=1;exitY=0.5;exitDx=0;exitDy=0;entryX=0.5;entryY=0;entryDx=0;entryDy=0;" edge="1" parent="1" source="wOqqg8vLbX3OlGaXOR6U-16" target="wOqqg8vLbX3OlGaXOR6U-33">
          <mxGeometry relative="1" as="geometry" />
        </mxCell>
        <mxCell id="wOqqg8vLbX3OlGaXOR6U-50" value="Да" style="edgeLabel;html=1;align=center;verticalAlign=middle;resizable=0;points=[];" vertex="1" connectable="0" parent="wOqqg8vLbX3OlGaXOR6U-49">
          <mxGeometry x="-0.6115" y="1" relative="1" as="geometry">
            <mxPoint as="offset" />
          </mxGeometry>
        </mxCell>
        <mxCell id="wOqqg8vLbX3OlGaXOR6U-51" style="edgeStyle=orthogonalEdgeStyle;rounded=0;orthogonalLoop=1;jettySize=auto;html=1;exitX=0;exitY=0.5;exitDx=0;exitDy=0;entryX=0.5;entryY=0;entryDx=0;entryDy=0;" edge="1" parent="1" source="wOqqg8vLbX3OlGaXOR6U-16" target="wOqqg8vLbX3OlGaXOR6U-22">
          <mxGeometry relative="1" as="geometry" />
        </mxCell>
        <mxCell id="wOqqg8vLbX3OlGaXOR6U-52" value="Нет" style="edgeLabel;html=1;align=center;verticalAlign=middle;resizable=0;points=[];" vertex="1" connectable="0" parent="wOqqg8vLbX3OlGaXOR6U-51">
          <mxGeometry x="0.1807" y="-1" relative="1" as="geometry">
            <mxPoint as="offset" />
          </mxGeometry>
        </mxCell>
        <mxCell id="wOqqg8vLbX3OlGaXOR6U-16" value="Все 5 цифр отгаданы?" style="rhombus;whiteSpace=wrap;html=1;" vertex="1" parent="1">
          <mxGeometry x="251.25" y="880" width="120" height="70" as="geometry" />
        </mxCell>
        <mxCell id="wOqqg8vLbX3OlGaXOR6U-17" value="Установить количество попыток на отгадывание комбинации = 6" style="rounded=0;whiteSpace=wrap;html=1;" vertex="1" parent="1">
          <mxGeometry x="365" y="140" width="120" height="60" as="geometry" />
        </mxCell>
        <mxCell id="wOqqg8vLbX3OlGaXOR6U-26" style="edgeStyle=orthogonalEdgeStyle;rounded=0;orthogonalLoop=1;jettySize=auto;html=1;exitX=0.5;exitY=1;exitDx=0;exitDy=0;entryX=0.5;entryY=0;entryDx=0;entryDy=0;" edge="1" parent="1" source="wOqqg8vLbX3OlGaXOR6U-21" target="wOqqg8vLbX3OlGaXOR6U-5">
          <mxGeometry relative="1" as="geometry" />
        </mxCell>
        <mxCell id="wOqqg8vLbX3OlGaXOR6U-21" value="Добавить нажатую цифру в последовательность отгадывания" style="rounded=0;whiteSpace=wrap;html=1;" vertex="1" parent="1">
          <mxGeometry x="360" y="360" width="120" height="60" as="geometry" />
        </mxCell>
        <mxCell id="wOqqg8vLbX3OlGaXOR6U-67" style="edgeStyle=orthogonalEdgeStyle;rounded=0;orthogonalLoop=1;jettySize=auto;html=1;exitX=0.5;exitY=1;exitDx=0;exitDy=0;entryX=0.5;entryY=0;entryDx=0;entryDy=0;" edge="1" parent="1" source="wOqqg8vLbX3OlGaXOR6U-22" target="wOqqg8vLbX3OlGaXOR6U-23">
          <mxGeometry relative="1" as="geometry" />
        </mxCell>
        <mxCell id="wOqqg8vLbX3OlGaXOR6U-22" value="Отнять 1 от количества попыток" style="rounded=0;whiteSpace=wrap;html=1;" vertex="1" parent="1">
          <mxGeometry x="95" y="950" width="120" height="60" as="geometry" />
        </mxCell>
        <mxCell id="wOqqg8vLbX3OlGaXOR6U-68" style="edgeStyle=orthogonalEdgeStyle;rounded=0;orthogonalLoop=1;jettySize=auto;html=1;exitX=1;exitY=0.5;exitDx=0;exitDy=0;" edge="1" parent="1" source="wOqqg8vLbX3OlGaXOR6U-23">
          <mxGeometry relative="1" as="geometry">
            <mxPoint x="280" y="1120" as="targetPoint" />
          </mxGeometry>
        </mxCell>
        <mxCell id="wOqqg8vLbX3OlGaXOR6U-69" value="Да" style="edgeLabel;html=1;align=center;verticalAlign=middle;resizable=0;points=[];" vertex="1" connectable="0" parent="wOqqg8vLbX3OlGaXOR6U-68">
          <mxGeometry x="-0.1476" relative="1" as="geometry">
            <mxPoint as="offset" />
          </mxGeometry>
        </mxCell>
        <mxCell id="wOqqg8vLbX3OlGaXOR6U-75" style="edgeStyle=orthogonalEdgeStyle;rounded=0;orthogonalLoop=1;jettySize=auto;html=1;exitX=0;exitY=0.5;exitDx=0;exitDy=0;entryX=1;entryY=0.5;entryDx=0;entryDy=0;" edge="1" parent="1" source="wOqqg8vLbX3OlGaXOR6U-23" target="wOqqg8vLbX3OlGaXOR6U-72">
          <mxGeometry relative="1" as="geometry" />
        </mxCell>
        <mxCell id="wOqqg8vLbX3OlGaXOR6U-76" value="Нет" style="edgeLabel;html=1;align=center;verticalAlign=middle;resizable=0;points=[];" vertex="1" connectable="0" parent="wOqqg8vLbX3OlGaXOR6U-75">
          <mxGeometry x="-0.3371" y="1" relative="1" as="geometry">
            <mxPoint as="offset" />
          </mxGeometry>
        </mxCell>
        <mxCell id="wOqqg8vLbX3OlGaXOR6U-23" value="Кол-во попыток&lt;br&gt;равно нулю?" style="rhombus;whiteSpace=wrap;html=1;" vertex="1" parent="1">
          <mxGeometry x="80" y="1030" width="150" height="80" as="geometry" />
        </mxCell>
        <mxCell id="wOqqg8vLbX3OlGaXOR6U-59" style="edgeStyle=orthogonalEdgeStyle;rounded=0;orthogonalLoop=1;jettySize=auto;html=1;exitX=0.5;exitY=1;exitDx=0;exitDy=0;entryX=0.5;entryY=0;entryDx=0;entryDy=0;" edge="1" parent="1" source="wOqqg8vLbX3OlGaXOR6U-30" target="wOqqg8vLbX3OlGaXOR6U-54">
          <mxGeometry relative="1" as="geometry">
            <Array as="points">
              <mxPoint x="732" y="780" />
              <mxPoint x="545" y="780" />
            </Array>
          </mxGeometry>
        </mxCell>
        <mxCell id="wOqqg8vLbX3OlGaXOR6U-30" value="Написать на&lt;br&gt;экране &quot;-&quot;" style="shape=parallelogram;perimeter=parallelogramPerimeter;whiteSpace=wrap;html=1;fixedSize=1;" vertex="1" parent="1">
          <mxGeometry x="672.5" y="650" width="120" height="40" as="geometry" />
        </mxCell>
        <mxCell id="wOqqg8vLbX3OlGaXOR6U-32" value="Тебя поймала полиция! Игра окончена!" style="shape=parallelogram;perimeter=parallelogramPerimeter;whiteSpace=wrap;html=1;fixedSize=1;" vertex="1" parent="1">
          <mxGeometry x="215" y="1120" width="120" height="60" as="geometry" />
        </mxCell>
        <mxCell id="wOqqg8vLbX3OlGaXOR6U-33" value="Комбинация отгадана! Ты выйграл(а)!" style="shape=parallelogram;perimeter=parallelogramPerimeter;whiteSpace=wrap;html=1;fixedSize=1;" vertex="1" parent="1">
          <mxGeometry x="380" y="950" width="120" height="60" as="geometry" />
        </mxCell>
        <mxCell id="wOqqg8vLbX3OlGaXOR6U-58" style="edgeStyle=orthogonalEdgeStyle;rounded=0;orthogonalLoop=1;jettySize=auto;html=1;exitX=0.5;exitY=1;exitDx=0;exitDy=0;entryX=0.5;entryY=0;entryDx=0;entryDy=0;" edge="1" parent="1" source="wOqqg8vLbX3OlGaXOR6U-34" target="wOqqg8vLbX3OlGaXOR6U-54">
          <mxGeometry relative="1" as="geometry" />
        </mxCell>
        <mxCell id="wOqqg8vLbX3OlGaXOR6U-34" value="Написать на&lt;br&gt;экране &quot;+&quot;" style="shape=parallelogram;perimeter=parallelogramPerimeter;whiteSpace=wrap;html=1;fixedSize=1;" vertex="1" parent="1">
          <mxGeometry x="552.5" y="720" width="120" height="40" as="geometry" />
        </mxCell>
        <mxCell id="wOqqg8vLbX3OlGaXOR6U-45" style="edgeStyle=orthogonalEdgeStyle;rounded=0;orthogonalLoop=1;jettySize=auto;html=1;exitX=0;exitY=0.5;exitDx=0;exitDy=0;entryX=0.537;entryY=-0.011;entryDx=0;entryDy=0;entryPerimeter=0;" edge="1" parent="1" source="wOqqg8vLbX3OlGaXOR6U-12" target="wOqqg8vLbX3OlGaXOR6U-15">
          <mxGeometry relative="1" as="geometry" />
        </mxCell>
        <mxCell id="wOqqg8vLbX3OlGaXOR6U-46" value="Нет" style="edgeLabel;html=1;align=center;verticalAlign=middle;resizable=0;points=[];" vertex="1" connectable="0" parent="wOqqg8vLbX3OlGaXOR6U-45">
          <mxGeometry x="-0.1259" y="2" relative="1" as="geometry">
            <mxPoint as="offset" />
          </mxGeometry>
        </mxCell>
        <mxCell id="wOqqg8vLbX3OlGaXOR6U-60" style="edgeStyle=orthogonalEdgeStyle;rounded=0;orthogonalLoop=1;jettySize=auto;html=1;exitX=0.5;exitY=1;exitDx=0;exitDy=0;entryX=0.5;entryY=0;entryDx=0;entryDy=0;" edge="1" parent="1" source="wOqqg8vLbX3OlGaXOR6U-54" target="wOqqg8vLbX3OlGaXOR6U-16">
          <mxGeometry relative="1" as="geometry">
            <Array as="points">
              <mxPoint x="545" y="860" />
              <mxPoint x="311" y="860" />
            </Array>
          </mxGeometry>
        </mxCell>
        <mxCell id="wOqqg8vLbX3OlGaXOR6U-54" value="Конец цикла" style="shape=loopLimit;whiteSpace=wrap;html=1;flipV=1;" vertex="1" parent="1">
          <mxGeometry x="475" y="800" width="140" height="50" as="geometry" />
        </mxCell>
        <mxCell id="wOqqg8vLbX3OlGaXOR6U-66" style="edgeStyle=orthogonalEdgeStyle;rounded=0;orthogonalLoop=1;jettySize=auto;html=1;exitX=0;exitY=0.5;exitDx=0;exitDy=0;entryX=0.5;entryY=0;entryDx=0;entryDy=0;" edge="1" parent="1" source="wOqqg8vLbX3OlGaXOR6U-61" target="wOqqg8vLbX3OlGaXOR6U-3">
          <mxGeometry relative="1" as="geometry">
            <Array as="points">
              <mxPoint x="478" y="213" />
              <mxPoint x="478" y="210" />
              <mxPoint x="425" y="210" />
            </Array>
          </mxGeometry>
        </mxCell>
        <mxCell id="wOqqg8vLbX3OlGaXOR6U-61" value="1" style="ellipse;whiteSpace=wrap;html=1;aspect=fixed;" vertex="1" parent="1">
          <mxGeometry x="497.5" y="190" width="45" height="45" as="geometry" />
        </mxCell>
        <mxCell id="wOqqg8vLbX3OlGaXOR6U-72" value="1" style="ellipse;whiteSpace=wrap;html=1;aspect=fixed;" vertex="1" parent="1">
          <mxGeometry y="1047.5" width="45" height="45" as="geometry" />
        </mxCell>
      </root>
    </mxGraphModel>
  </diagram>
</mxfile>
